<svg xmlns="http://www.w3.org/2000/svg" width="112" height="112" viewBox="0 0 112 112">
  <g id="Grupo_386" data-name="Grupo 386" transform="translate(-195 -1226)">
    <circle id="Elipse_71" data-name="Elipse 71" cx="56" cy="56" r="56" transform="translate(195 1226)" fill="#fff" opacity="0.395"/>
    <g id="Grupo_386-2" data-name="Grupo 386" transform="translate(-117.901 1028.861)">
      <path id="Caminho_143" data-name="Caminho 143" d="M331.227,235.944a7.273,7.273,0,0,1,7.224-7.3.857.857,0,1,0,0-1.715,9.02,9.02,0,1,0,8.906,9.018.857.857,0,1,0-1.715,0,7.208,7.208,0,1,1-14.415,0Z" transform="translate(9.413 23.779)" fill="#fff"/>
      <path id="Caminho_144" data-name="Caminho 144" d="M363.371,239.718H338.514a.857.857,0,0,0,0,1.715h24.857a.857.857,0,0,0,0-1.715Z" transform="translate(17.974 37.223)" fill="#fff"/>
      <path id="Caminho_145" data-name="Caminho 145" d="M382.783,231.534a13.108,13.108,0,0,0-5.895,1.395l-3.321-5.794,1.875-3.007h3.741a2.875,2.875,0,0,0,2.861-2.882,2.84,2.84,0,0,0-2.861-2.882h-8.93a2.841,2.841,0,0,0-2.861,2.882,2.876,2.876,0,0,0,2.861,2.882h3.169l-1.434,2.3h-23.6l2.26-6.153a.858.858,0,0,0-.806-1.153H342a.857.857,0,0,0-.857.857v2.882a.857.857,0,0,0,.857.857h2.207a.857.857,0,0,0,0-1.715h-1.35v-1.167h5.759l-4.137,11.26a13.162,13.162,0,0,0-3.8-.56,13.317,13.317,0,1,0,5.411,1.163l.794-2.158,11.841,10.587a4.048,4.048,0,1,0,6.66-.863l7.156-11.478,2.869,5.011a13.23,13.23,0,1,0,7.375-2.262Zm-30.536,13.41a11.571,11.571,0,1,1-11.57-11.7,11.472,11.472,0,0,1,3.214.459l-4.018,10.94a.858.858,0,0,0,1.61.593l4.012-10.93A11.721,11.721,0,0,1,352.247,244.943Zm10.1.377a2.366,2.366,0,0,1,0-4.732,2.293,2.293,0,0,1,1.294.4.874.874,0,0,0,.187.158l.057.033a2.371,2.371,0,0,1-1.538,4.143ZM364,239.233a4.021,4.021,0,0,0-4.209.552l-12.278-10.977.246-.669H370.92Zm6.25-16.821a1.158,1.158,0,0,1-1.147-1.167,1.145,1.145,0,0,1,1.147-1.167h8.93a1.144,1.144,0,0,1,1.147,1.167,1.158,1.158,0,0,1-1.147,1.167Zm12.53,34.226a11.717,11.717,0,0,1-6.52-21.351l5.778,10.083a.857.857,0,1,0,1.487-.851l-5.786-10.1a11.382,11.382,0,0,1,5.041-1.171,11.7,11.7,0,0,1,0,23.39Z" transform="translate(7.186 14.78)" fill="#fff"/>
      <path id="Caminho_146" data-name="Caminho 146" d="M358.979,226.926a.857.857,0,1,0,0,1.715,7.305,7.305,0,1,1-7.224,7.3.857.857,0,0,0-1.715,0,8.923,8.923,0,1,0,8.938-9.018Z" transform="translate(30.99 23.779)" fill="#fff"/>
      <path id="Caminho_147" data-name="Caminho 147" d="M405.986,249.2v-.995l-.035-.548-.035-.515v-.515l-.033-.548-.068-.515-.035-.515-.068-.515-.068-.513-.068-.515-.068-.515-.068-.515-.1-.515-.1-.515-.068-.513-.135-.48-.1-.515-.1-.515-.137-.48-.135-.48-.135-.515-.135-.48-.135-.48-.17-.482-.135-.48-.17-.48-.17-.48-.17-.48-.2-.48-.17-.445-.2-.48-.17-.447-.2-.48-.205-.445-.238-.447-.2-.445-.238-.445-.2-.447-.238-.445-.238-.447-.271-.445-.238-.412-.238-.445-.271-.412-.273-.41-.271-.412-.273-.412-.271-.41-.273-.412-.306-.412-.271-.41-.306-.377-.306-.412-.306-.377-.306-.377-.306-.377-.34-.377-.306-.375-.338-.377-.34-.345-.338-.377-.34-.342-.338-.377-.34-.342-.341-.343-.373-.343-.373-.345-.338-.308-.375-.342-.373-.31-.373-.308-.373-.342-.408-.31-.373-.275-.406-.308-.373-.31-.408-.275-.408-.308-.406-.275-.408-.275-.408-.273-.406-.24-.443-.275-.406-.275-.441-.24-.443-.24-.406-.24-.443-.24-.441-.24-.441-.205-.441-.242-.441-.205-.476-.205-.441-.205-.476-.207-.441-.17-.476-.207-.441-.17-.476-.172-.476-.172-.476-.17-.476-.172-.474-.137-.476-.17-.509-.137-.476-.137-.476-.137-.509-.1-.476-.137-.509-.1-.511-.1-.476-.1-.509-.1-.509-.068-.511-.1-.509-.07-.509-.068-.511-.07-.509-.033-.509-.07-.544-.033-.509-.035-.511-.035-.544-.035h-3.157l-.511.035-.544.035-.509.035-.509.033-.543.07-.509.033-.511.07-.509.068-.509.07-.511.1-.509.068-.476.1-.509.1-.511.1-.474.1-.511.137-.474.1-.511.137-.476.137-.474.137-.511.17-.474.137-.476.172-.476.17-.476.172-.441.172-.476.17-.476.207-.441.17-.476.207-.441.205-.441.205-.476.205-.441.242-.441.205-.441.24-.408.24-.441.24-.443.24-.406.24-.441.275-.408.275-.441.24-.408.273-.408.275-.406.275-.408.308-.373.275-.408.31-.406.308-.375.275-.373.31-.406.342-.373.308-.375.31-.338.342-.373.308-.373.345-.34.343-.373.343-.341.342-.338.377-.34.342-.338.377-.34.345-.338.377-.306.375-.306.377-.34.377-.306.377-.306.377-.306.412-.306.377-.271.41-.306.412-.273.412-.271.41-.273.412-.271.412-.273.41-.236.412-.273.445-.238.412-.238.445-.238.447-.236.445-.238.447-.238.445-.205.445-.2.447-.2.445-.205.48-.2.447-.2.48-.17.445-.2.48-.17.48-.17.48-.17.48-.135.48-.17.482-.135.48-.135.48-.135.515-.137.48-.135.48-.1.515-.1.515-.1.48-.1.513-.1.515-.1.515-.068.515-.068.515-.068.515-.068.513-.068.515-.035.515-.033.515-.035.548-.035.515-.033.515v.548l-.035.515v1.1l.035.515v.55l.033.515.035.513.035.55.033.515.035.515.068.513.068.515.068.515.068.515.068.515.1.513.1.515.1.515.1.48.1.515.1.515.135.48.137.48.135.515.135.48.135.48.17.48.135.48.17.48.17.48.17.482.2.48.17.445.2.48.2.447.205.48.2.445.2.445.205.447.238.445.238.447.236.445.238.445.238.447.238.41.273.447.236.41.273.412.271.412.273.41.271.412.273.412.306.41.271.412.306.377.306.412.306.375.306.377.34.377.306.377.306.377.338.377.34.343.338.377.34.343.338.377.341.345.373.343.34.342.373.343.373.31.338.342.375.308.373.31.406.342.373.31.375.273.406.31.408.308.373.275.408.31.406.273.408.275.408.275.441.24.408.275.441.24.406.275.443.24.441.24.408.24.441.24.441.205.441.24.476.207.441.205.441.205.476.207.441.17.476.207.476.17.441.172.476.17.476.172.476.17.474.137.511.172.474.137.476.137.511.1.474.137.511.137.474.1.511.1.509.1.476.1.509.07.511.1.509.068.509.07.511.068.509.035.543.07.509.033.509.035.544.035.511.033h1.6a.867.867,0,0,0,.849-.857.892.892,0,0,0-.849-.857h-1.528l-.511-.033-.509-.035-.476-.035-.509-.035-.476-.068-.509-.035-.476-.068-.509-.07-.476-.068-.509-.07-.476-.1-.476-.068-.476-.1-.474-.1-.476-.1-.476-.1-.476-.137-.476-.137-.441-.1-.476-.137-.474-.135-.443-.172-.474-.137-.443-.172-.441-.17-.476-.172-.441-.17-.441-.172-.441-.172-.443-.205-.406-.205-.441-.172-.443-.205-.406-.24-.441-.207-.408-.205-.441-.24-.408-.24-.408-.24-.406-.24-.408-.24-.408-.24-.406-.24-.373-.275-.408-.275-.373-.275-.408-.273-.373-.275-.373-.275-.373-.275-.373-.308-.373-.275-.375-.308-.338-.31-.373-.308-.34-.31-.373-.308-.338-.345-.34-.308-.341-.342-.338-.345-.306-.343-.34-.343-.338-.343-.306-.342-.306-.345-.306-.377-.306-.342-.306-.377-.306-.343-.306-.377-.273-.377-.271-.377-.306-.377-.273-.41-.271-.377-.271-.412-.238-.377-.273-.41-.238-.412-.271-.377-.238-.412-.238-.41-.238-.447-.2-.41-.238-.412-.238-.412-.2-.445-.205-.445-.2-.412-.2-.445-.205-.447-.168-.445-.17-.447-.2-.445-.17-.445-.17-.447-.17-.445-.135-.48-.17-.447-.135-.48-.135-.445-.135-.48-.137-.48-.1-.447L327,258.7l-.1-.48-.1-.48-.1-.48-.1-.48-.1-.515-.068-.48-.1-.48-.068-.515-.068-.48-.033-.48-.07-.515-.033-.515-.035-.48-.033-.515-.035-.515-.033-.48V250.3l-.035-.513v-1.03l.035-.515v-.515l.033-.48.035-.513.033-.515.035-.48.033-.515.07-.515.033-.48.068-.48.068-.515.1-.48.068-.48.1-.515.1-.48.1-.48.1-.48.1-.482.137-.48.1-.445.137-.48.135-.48.135-.447.135-.48.17-.445.135-.48.17-.445.17-.447.17-.445.2-.447.17-.445.168-.445.205-.447.2-.445.2-.412.205-.445.2-.447.238-.41.238-.412.2-.41.238-.447.238-.412.238-.41.271-.377.238-.412.273-.41.238-.377.271-.412.271-.377.273-.412.306-.377.271-.377.273-.375.306-.377.306-.345.306-.375.306-.345.306-.377.306-.343.306-.343.338-.343.34-.345.306-.342.338-.343.341-.343.34-.31.338-.343.373-.308.34-.31.373-.308.338-.31.375-.308.373-.275.373-.31.373-.273.373-.275.373-.275.408-.275.373-.273.408-.275.373-.275.406-.24.408-.24.408-.24.406-.275.408-.205.408-.24.441-.24.408-.207.441-.205.406-.24.443-.205.441-.172.406-.205.443-.207.441-.17.441-.172.441-.17.476-.172.441-.172.443-.17.474-.137.443-.172.474-.137.476-.137.441-.1.476-.137.476-.135.476-.1.476-.1.474-.1.476-.1.476-.07.476-.1.509-.068.476-.07.509-.068.476-.07.509-.033.476-.07.509-.033.476-.035.509-.035.511-.033H366.6l.511.033.509.035.476.035.509.033.509.07.476.033.509.07.476.068.476.07.509.068.476.1.476.07.476.1.474.1.476.1.476.1.476.135.476.137.474.1.443.137.474.137.443.172.474.137.443.17.474.172.441.172.443.17.441.172.441.17.441.207.443.205.406.172.443.205.441.24.406.205.443.207.406.24.408.24.408.205.406.275.408.24.408.24.406.24.373.275.408.275.408.273.373.275.373.275.373.275.373.273.373.31.373.275.375.308.373.31.338.308.373.31.34.308.338.343.34.31.341.343.338.343.34.342.306.345.338.343.306.343.306.343.34.377.306.345.271.375.306.345.306.377.273.375.306.377.271.377.273.412.271.377.271.412.273.377.238.41.271.412.238.377.238.41.238.412.238.447.238.41.2.412.238.41.2.447.2.445.205.412.2.445.205.447.168.445.205.445.168.447.17.445.17.447.17.445.135.48.17.445.135.48.135.447.135.48.137.48.135.445.1.48.1.482.135.48.1.48.068.48.1.515.068.48.1.48.068.515.068.48.068.48.035.515.033.515.068.48.035.515.033.513v.48l.035.515v.96H402.93l2.207,4.459,2.207-4.459Z" transform="translate(3.814 3.866)" fill="#fff"/>
      <path id="Caminho_148" data-name="Caminho 148" d="M368.917,204.3c-26.668,0-48.361,21.907-48.361,48.837s21.694,48.837,48.361,48.837c26.647,0,48.329-21.909,48.329-48.837S395.564,204.3,368.917,204.3Zm0,95.96c-25.722,0-46.647-21.14-46.647-47.122s20.925-47.123,46.647-47.123c25.7,0,46.614,21.138,46.614,47.123S394.619,300.262,368.917,300.262Z" transform="translate(0 0)" fill="#fff"/>
    </g>
  </g>
</svg>
