<svg xmlns="http://www.w3.org/2000/svg" width="50" height="50" viewBox="0 0 50 50">
  <g id="Grupo_583" data-name="Grupo 583" transform="translate(-72 -318)">
    <rect id="Retângulo_34" data-name="Retângulo 34" width="50" height="50" rx="25" transform="translate(72 318)" fill="#9ea4a6"/>
    <path id="Caminho_95" data-name="Caminho 95" d="M1148.093,375.929a6,6,0,0,1,.69-2.837,6.61,6.61,0,0,1,2.315-2.53,6.41,6.41,0,0,0-5.091-2.821c-2.146-.215-4.2,1.3-5.29,1.3s-2.806-1.257-4.6-1.242a6.893,6.893,0,0,0-5.75,3.557,7.993,7.993,0,0,0-.828,2.132c-1.043,4.094.6,9.138,2.607,12.112,1.15,1.7,2.561,3.65,4.37,3.573,1.763-.061,2.423-1.15,4.554-1.15s2.714,1.15,4.585,1.1c1.9-.015,3.1-1.748,4.262-3.449a16.742,16.742,0,0,0,1.917-4.018,6.289,6.289,0,0,1-3.741-5.735Zm-3.481-10.518a6.317,6.317,0,0,0,1.457-4.493,6.145,6.145,0,0,0-5.566,6.516,5.175,5.175,0,0,0,4.109-2.009Z" transform="translate(-1043.217 -34.549)" fill="#fff" fill-rule="evenodd"/>
  </g>
</svg>
