<svg xmlns="http://www.w3.org/2000/svg" width="40" height="40" viewBox="0 0 40 40">
  <g id="Grupo_647" data-name="Grupo 647" transform="translate(0 -1)" opacity="0.703">
    <rect id="Retângulo_271" data-name="Retângulo 271" width="40" height="40" rx="20" transform="translate(0 1)" fill="#fff"/>
    <g id="date" transform="translate(12.778 13.36)">
      <g id="Grupo_49" data-name="Grupo 49">
        <g id="Grupo_48" data-name="Grupo 48">
          <path id="Caminho_47" data-name="Caminho 47" d="M12.9,1.548H11.35V.516a.516.516,0,1,0-1.032,0V1.548H4.127V.516A.516.516,0,1,0,3.1.516V1.548H1.548A1.548,1.548,0,0,0,0,3.1v9.8a1.548,1.548,0,0,0,1.548,1.548H12.9A1.548,1.548,0,0,0,14.445,12.9V3.1A1.548,1.548,0,0,0,12.9,1.548Zm.516,11.35a.516.516,0,0,1-.516.516H1.548a.516.516,0,0,1-.516-.516V6.191H13.413Zm0-7.738H1.032V3.1a.516.516,0,0,1,.516-.516H3.1V3.611a.516.516,0,1,0,1.032,0V2.579h6.191V3.611a.516.516,0,1,0,1.032,0V2.579H12.9a.516.516,0,0,1,.516.516V5.159Z" fill="#383838"/>
        </g>
      </g>
    </g>
  </g>
</svg>
