<svg xmlns="http://www.w3.org/2000/svg" width="115.499" height="21.785" viewBox="0 0 115.499 21.785">
  <g id="Grupo_552" data-name="Grupo 552" transform="translate(-48.631 -50.212)" opacity="0.798">
    <g id="Grupo_328" data-name="Grupo 328" transform="translate(87.709 50.212)">
      <path id="Caminho_125" data-name="Caminho 125" d="M396.518,128.809a7.529,7.529,0,0,1-7.778-7.882c0-.073.008-.143.009-.216l-1.2,1.862A8.685,8.685,0,0,0,396.518,130a8.153,8.153,0,0,0,8.064-5.474h-1.271A7.076,7.076,0,0,1,396.518,128.809Z" transform="translate(-366.912 -108.29)" fill="#ffde00"/>
      <path id="Caminho_126" data-name="Caminho 126" d="M293.836,57.829l1.66-2.572.024.048.36.69.3.573,3.152,6.053a.538.538,0,0,0,.725.188.514.514,0,0,0,.27-.684l-3.452-6.631a8.046,8.046,0,0,1,3.132-.553,7.252,7.252,0,0,1,6.691,3.98h1.269c-1.244-3.4-4.485-5.094-7.907-5.17a9.967,9.967,0,0,0-3.729.7L294.7,51.312h4.286a.556.556,0,0,0,0-1.1h-5.211a.577.577,0,0,0-.507.564.665.665,0,0,0,.081.349l.822,1.579L294.839,54l-.01.011L293,56.845l.011-.013-1.157,1.793.009-.019-2.214,3.43-.694,1.075-.184.285s-2.8,4.315-2.834,4.344a7.694,7.694,0,0,1-6.356,3.067,7.605,7.605,0,0,1-7.83-7.957,7.856,7.856,0,1,1,15.712,0c0,.077-.009.149-.01.224l.821-1.272.385-.6.309-.478-1.144-2.2-.184-.353-2.471-4.745h2.524a.556.556,0,0,0,0-1.1h-5.21a.556.556,0,0,0,0,1.1h1.433l.9,1.727a9.636,9.636,0,0,0-5.234-1.458,8.819,8.819,0,0,0-9.153,9.149A8.775,8.775,0,0,0,279.578,72c2.958,0,5.639-1.044,7.061-3.022l1.256-1.947,1.715-2.656L290.3,63.3l.643-.994,2.37-3.671Z" transform="translate(-270.425 -50.212)" fill="#ffde00"/>
    </g>
    <path id="Caminho_127" data-name="Caminho 127" d="M48.631,70.909h1.447L56.421,86.5l6.343-15.588h1.391L56.643,88.723h-.556Z" transform="translate(0 -17.051)" fill="#fff"/>
    <rect id="Retângulo_298" data-name="Retângulo 298" width="10.404" height="1.178" transform="translate(65.712 53.859)" fill="#fff"/>
    <rect id="Retângulo_299" data-name="Retângulo 299" width="10.404" height="1.178" transform="translate(65.712 70.494)" fill="#fff"/>
    <rect id="Retângulo_300" data-name="Retângulo 300" width="9.933" height="1.092" transform="translate(65.712 61.956)" fill="#fff"/>
    <rect id="Retângulo_301" data-name="Retângulo 301" width="17.813" height="1.178" transform="translate(66.89 53.859) rotate(90)" fill="#fff"/>
    <rect id="Retângulo_302" data-name="Retângulo 302" width="10.404" height="1.178" transform="translate(78.62 70.494)" fill="#fff"/>
    <rect id="Retângulo_303" data-name="Retângulo 303" width="17.813" height="1.178" transform="translate(79.798 53.859) rotate(90)" fill="#fff"/>
    <rect id="Retângulo_304" data-name="Retângulo 304" width="17.813" height="1.178" transform="translate(130.92 53.859) rotate(90)" fill="#fff"/>
    <rect id="Retângulo_305" data-name="Retângulo 305" width="17.813" height="1.178" transform="translate(142.548 53.859) rotate(90)" fill="#fff"/>
    <rect id="Retângulo_306" data-name="Retângulo 306" width="13.115" height="1.178" transform="translate(148.564 55.036) rotate(180)" fill="#fff"/>
    <rect id="Retângulo_307" data-name="Retângulo 307" width="7.656" height="1.178" transform="translate(134.159 55.036) rotate(180)" fill="#fff"/>
    <rect id="Retângulo_308" data-name="Retângulo 308" width="8.152" height="1.178" transform="translate(134.407 71.672) rotate(180)" fill="#fff"/>
    <rect id="Retângulo_309" data-name="Retângulo 309" width="8.152" height="1.178" transform="translate(156.17 71.672) rotate(-90)" fill="#fff"/>
    <path id="Caminho_128" data-name="Caminho 128" d="M619.867,70.909h1.447l6.065,8.935,5.953-8.935h1.391L627.6,81.893h-.556Z" transform="translate(-470.592 -17.051)" fill="#fff"/>
  </g>
</svg>
