<svg data-name="Grupo 3" xmlns="http://www.w3.org/2000/svg" width="23.526" height="7.618"><path data-name="Caminho 6" d="M12.167 2.436c-.013 1.058.943 1.649 1.664 2 .74.36.989.592.986.914-.01.909-1.689.91-3.09.255l-.344 1.61c1.818.838 5.411.483 5.423-2.123.008-1.939-2.682-2.047-2.664-2.913.022-.9 1.839-.674 2.681-.286l.334-1.558c-2.566-.935-4.976.2-4.99 2.1" fill="#1a1e71"/><path data-name="Caminho 7" d="M21.991.141h-1.623a.866.866 0 00-.809.539l-2.852 6.81h1.995l.4-1.1h2.438l.23 1.1h1.759zm-2.345 4.745l1-2.759.576 2.759z" fill="#1a1e71"/><path data-name="Caminho 8" d="M9.748.141L8.175 7.489h1.9L11.647.141h-1.9" fill="#1a1e71"/><path data-name="Caminho 9" d="M6.936.141l-1.979 5-.8-4.253a.886.886 0 00-.876-.749H.046L.001.352c1.4.3 2.141.538 2.327 1.271l1.516 5.864h2.009L8.933.138h-2" fill="#1a1e71"/></svg>