<svg xmlns="http://www.w3.org/2000/svg" width="103.541" height="19.53" viewBox="0 0 103.541 19.53">
  <g id="Grupo_111" data-name="Grupo 111" transform="translate(0 0)" opacity="0.403">
    <g id="Grupo_110" data-name="Grupo 110" transform="translate(35.031 0)">
      <path id="Caminho_88" data-name="Caminho 88" d="M395.59,127.971a6.75,6.75,0,0,1-6.973-7.066c0-.065.007-.128.008-.193l-1.078,1.67a7.786,7.786,0,0,0,8.042,6.658,7.309,7.309,0,0,0,7.229-4.907h-1.139A6.344,6.344,0,0,1,395.59,127.971Z" transform="translate(-369.048 -109.576)" fill="#fff"/>
      <path id="Caminho_89" data-name="Caminho 89" d="M291.412,57.04l1.488-2.306.022.043.322.618.268.514,2.826,5.427a.482.482,0,0,0,.65.169.461.461,0,0,0,.242-.613l-3.094-5.944a7.214,7.214,0,0,1,2.807-.5,6.5,6.5,0,0,1,6,3.567h1.138a7.384,7.384,0,0,0-7.088-4.635,8.935,8.935,0,0,0-3.343.625L292.183,51.2h3.842a.5.5,0,0,0,0-.986h-4.671a.517.517,0,0,0-.455.505.6.6,0,0,0,.073.313l.737,1.415.6,1.158-.009.009-1.642,2.545.01-.012-1.037,1.608.008-.017-1.985,3.075-.622.963-.165.255s-2.509,3.868-2.541,3.894a6.9,6.9,0,0,1-5.7,2.749,6.818,6.818,0,0,1-7.019-7.133,7.043,7.043,0,1,1,14.085,0c0,.069-.008.133-.009.2l.736-1.14.345-.534.277-.429-1.026-1.971-.165-.316L283.64,53.1H285.9a.5.5,0,0,0,0-.987h-4.671a.5.5,0,0,0,0,.987h1.285l.806,1.548a8.638,8.638,0,0,0-4.693-1.307,7.906,7.906,0,0,0-8.205,8.2,7.867,7.867,0,0,0,8.205,8.2,7.656,7.656,0,0,0,6.33-2.709l1.126-1.745,1.537-2.381.62-.963.577-.891,2.124-3.291Z" transform="translate(-270.425 -50.212)" fill="#fff"/>
    </g>
    <path id="Caminho_90" data-name="Caminho 90" d="M48.631,70.909h1.3l5.686,13.974L61.3,70.909h1.247L55.814,86.878h-.5Z" transform="translate(-48.631 -67.64)" fill="#fff"/>
    <rect id="Retângulo_80" data-name="Retângulo 80" width="9.327" height="1.056" transform="translate(15.312 3.269)" fill="#fff"/>
    <rect id="Retângulo_81" data-name="Retângulo 81" width="9.327" height="1.056" transform="translate(15.312 18.182)" fill="#fff"/>
    <rect id="Retângulo_82" data-name="Retângulo 82" width="8.905" height="0.979" transform="translate(15.312 10.528)" fill="#fff"/>
    <rect id="Retângulo_83" data-name="Retângulo 83" width="15.969" height="1.056" transform="translate(16.368 3.269) rotate(90)" fill="#fff"/>
    <rect id="Retângulo_84" data-name="Retângulo 84" width="9.327" height="1.056" transform="translate(26.884 18.182)" fill="#fff"/>
    <rect id="Retângulo_85" data-name="Retângulo 85" width="15.969" height="1.056" transform="translate(27.94 3.269) rotate(90)" fill="#fff"/>
    <rect id="Retângulo_86" data-name="Retângulo 86" width="15.969" height="1.056" transform="translate(73.768 3.269) rotate(90)" fill="#fff"/>
    <rect id="Retângulo_87" data-name="Retângulo 87" width="15.969" height="1.056" transform="translate(84.193 3.269) rotate(90)" fill="#fff"/>
    <rect id="Retângulo_88" data-name="Retângulo 88" width="11.757" height="1.056" transform="translate(89.586 4.325) rotate(180)" fill="#fff"/>
    <rect id="Retângulo_89" data-name="Retângulo 89" width="6.864" height="1.056" transform="translate(76.672 4.325) rotate(180)" fill="#fff"/>
    <rect id="Retângulo_90" data-name="Retângulo 90" width="7.308" height="1.056" transform="translate(76.894 19.238) rotate(180)" fill="#fff"/>
    <rect id="Retângulo_91" data-name="Retângulo 91" width="7.308" height="1.056" transform="translate(96.404 19.238) rotate(-90)" fill="#fff"/>
    <path id="Caminho_91" data-name="Caminho 91" d="M619.867,70.909h1.3l5.437,8.009,5.337-8.009h1.247L626.8,80.756h-.5Z" transform="translate(-529.644 -67.64)" fill="#fff"/>
  </g>
</svg>
