<svg data-name="Grupo 598" xmlns="http://www.w3.org/2000/svg" width="80.727" height="21.686"><text transform="translate(45.727 13.139)" font-size="8" font-family="SegoeUI-Light, Segoe UI" font-weight="300" letter-spacing=".025em"><tspan x="0" y="0">VELOCITY</tspan></text><g data-name="Grupo 156"><g data-name="Grupo 155" fill="#ffe500"><path data-name="Caminho 88" d="M29.471 20.425a7.5 7.5 0 01-7.742-7.846c0-.073.008-.142.009-.215l-1.2 1.854a8.645 8.645 0 008.93 7.392 8.116 8.116 0 008.027-5.449H36.23a7.044 7.044 0 01-6.759 4.264z"/><path data-name="Caminho 89" d="M23.303 7.582l1.653-2.56.024.047.358.686.3.571 3.138 6.026a.535.535 0 00.722.187.512.512 0 00.269-.681l-3.436-6.6a8.01 8.01 0 013.117-.551 7.219 7.219 0 016.66 3.961h1.263c-1.238-3.38-4.464-5.071-7.871-5.146a9.92 9.92 0 00-3.712.694l-1.625-3.122h4.266a.553.553 0 000-1.095h-5.187a.575.575 0 00-.5.561.662.662 0 00.08.347l.819 1.572.669 1.286-.01.011-1.824 2.826.011-.013-1.152 1.785.009-.019-2.2 3.414-.691 1.07-.183.284s-2.786 4.3-2.821 4.324A7.659 7.659 0 019.122 20.5a7.57 7.57 0 01-7.794-7.921 7.82 7.82 0 1115.64 0c0 .077-.009.148-.01.223l.817-1.266.383-.593.307-.476-1.139-2.188-.183-.351-2.468-4.723h2.513a.554.554 0 000-1.1h-5.186a.554.554 0 000 1.1h1.426l.895 1.719a9.591 9.591 0 00-5.21-1.451A8.779 8.779 0 00.002 12.58a8.735 8.735 0 009.111 9.107c2.944 0 5.614-1.039 7.029-3.008l1.25-1.938 1.707-2.644.689-1.069.64-.989 2.357-3.651z"/></g></g></svg>