<svg data-name="Grupo 7" xmlns="http://www.w3.org/2000/svg" width="29.281" height="10.004"><path d="M18.412 2.472a.159.159 0 01-.035-.054.586.586 0 01-.037-.231.4.4 0 01.085-.286.168.168 0 01.128-.045h.6l-.293.68h-.188a.377.377 0 01-.26-.064zM1.862.002L.001 4.33h2.1l.257-.649h.757l.256.649h10.468v-.614l.518.614h2.767v-.448a1.761 1.761 0 00.421.276 1.863 1.863 0 00.55.159l-.007.018h2.1l.258-.649h.757l.256.649h2.746v-.791l.51.791h1.834V.002h-1.9V.74l-.477-.738h-1.869v1.366L21.716.002H18.58a2.439 2.439 0 00-.988.191 1.878 1.878 0 00-.474.3V.002H7.149l-.354 1.012L6.434.008 4.218 0v1.372L3.63.003zm4.323 5.673v4.328h4.564l.477-.64.489.64h2.76V8.982a2.47 2.47 0 001.388-.284v1.307h1.9v-.614l.518.614h9.127a1.512 1.512 0 001.6-1.575 1.427 1.427 0 00-.488-1.126l.761-1.627H11.772l-.521.671-.52-.671z" fill="#fff"/><g data-name="Grupo 6" fill="#016fd0"><path d="M2.223.546l-1.4 3.242h.908l.258-.649h1.5l.256.649h.928L3.28.546zm.516.755l.456 1.134h-.913zM4.765 3.787V.545h1.29l.75 2.09.732-2.1h1.28v3.242h-.811V1.398l-.859 2.389h-.711l-.862-2.389v2.389zM9.372 3.787V.545h2.645v.73H10.19v.555h1.783v.682H10.19v.576h1.826v.7zM12.486.546v3.242h.807V2.636h.341l.972 1.152h.99l-1.067-1.194a.988.988 0 00.889-1A1.049 1.049 0 0014.293.546zm.807.728h.927a.372.372 0 01.384.342.366.366 0 01-.372.341h-.939v-.683zM16.581 3.787h-.826V.545h.827zM18.548 3.787h-.179A1.429 1.429 0 0116.98 2.18 1.485 1.485 0 0118.59.545h.9v.768h-.928a.78.78 0 00-.756.874.794.794 0 00.874.892h.213zM20.307.546l-1.394 3.242h.908l.258-.649h1.5l.256.649h.928L21.37.546zm.516.755l.456 1.134h-.913l.457-1.134zM22.852 3.787V.545h1.03l1.316 2.037V.545h.811v3.242h-1l-1.349-2.09v2.09zM6.728 9.46V6.218h2.645v.725H7.549v.555h1.783v.682H7.549v.576h1.826v.7zM19.687 9.46V6.218h2.645v.725h-1.826v.555h1.774v.682h-1.774v.576h1.826v.7zM9.475 9.46l1.288-1.6-1.318-1.641h1.021l.785 1.015.788-1.015h.981l-1.3 1.621 1.29 1.621h-1.021l-.762-1-.744 1zM13.105 6.219v3.242h.832V8.437h.853a1.121 1.121 0 001.269-1.128 1.067 1.067 0 00-1.164-1.09zm.832.733h.9a.366.366 0 01.4.373.374.374 0 01-.4.373h-.9v-.746zM16.411 6.218V9.46h.811V8.308h.341l.972 1.152h.99l-1.067-1.194a.987.987 0 00.889-1 1.049 1.049 0 00-1.133-1.052zm.811.725h.927a.372.372 0 01.384.341.366.366 0 01-.372.341h-.938zM22.707 9.46v-.7h1.622c.24 0 .344-.13.344-.272s-.1-.274-.344-.274h-.733a.906.906 0 01-.992-.971c0-.52.325-1.021 1.272-1.021h1.579l-.341.729h-1.365c-.261 0-.341.137-.341.268a.283.283 0 00.3.283h.768a.889.889 0 011.019.93.972.972 0 01-1.057 1.032z"/><path data-name="Caminho 11" d="M25.681 9.46v-.7h1.622c.24 0 .344-.13.344-.272s-.1-.274-.344-.274h-.733a.906.906 0 01-.992-.971c0-.52.325-1.021 1.272-1.021h1.578l-.341.729h-1.365c-.261 0-.342.137-.342.268a.283.283 0 00.3.283h.768a.889.889 0 011.018.93.972.972 0 01-1.057 1.032z"/></g></svg>