<svg xmlns="http://www.w3.org/2000/svg" xmlns:xlink="http://www.w3.org/1999/xlink" width="180" height="39.184" viewBox="0 0 180 39.184">
  <defs>
    <clipPath id="clip-path">
      <rect id="Retângulo_29" data-name="Retângulo 29" width="180" height="39.184" transform="translate(0 0)" fill="#fff"/>
    </clipPath>
  </defs>
  <g id="Grupo_20" data-name="Grupo 20" transform="translate(-1049.652 -473.311)">
    <g id="Grupo_19" data-name="Grupo 19" transform="translate(1049.652 473.311)" clip-path="url(#clip-path)">
      <path id="Caminho_23" data-name="Caminho 23" d="M1146.407,476.386a3.009,3.009,0,1,1-3.009-3.039,3.025,3.025,0,0,1,3.009,3.039" transform="translate(-1113.732 -473.336)" fill="#fff"/>
      <path id="Caminho_24" data-name="Caminho 24" d="M1079.21,512.5h-26.478a3.058,3.058,0,0,1-3.079-3.023,3.106,3.106,0,0,1,3.079-3.079h20.376L1051,479.692a5.073,5.073,0,0,1-1.232-3.191v-.167a3.1,3.1,0,0,1,3.08-3.023h14.211a3.1,3.1,0,0,1,3.023,3.079,3.047,3.047,0,0,1-3.023,3.023h-8.109l22.055,26.7a4.732,4.732,0,0,1,1.288,3.19v.168a3.134,3.134,0,0,1-3.079,3.023" transform="translate(-1049.653 -473.311)" fill="#fff"/>
      <path id="Caminho_25" data-name="Caminho 25" d="M1204.021,524.834a1.453,1.453,0,0,1,.862-2.634,1.444,1.444,0,0,1,.912.279,7.688,7.688,0,0,0,4.964,1.824c1.925,0,3.141-.912,3.141-2.229v-.051c0-1.266-.709-1.95-4-2.71-3.775-.912-5.9-2.026-5.9-5.294v-.051c0-3.039,2.533-5.142,6.054-5.142a9.754,9.754,0,0,1,5.623,1.647,1.4,1.4,0,0,1,.684,1.241,1.448,1.448,0,0,1-1.469,1.444,1.505,1.505,0,0,1-.811-.228,7.374,7.374,0,0,0-4.078-1.343c-1.823,0-2.887.937-2.887,2.1v.051c0,1.368.81,1.976,4.23,2.786,3.749.912,5.674,2.254,5.674,5.193v.051c0,3.318-2.609,5.294-6.333,5.294a11.041,11.041,0,0,1-6.662-2.229" transform="translate(-1158.24 -498.392)" fill="#fff"/>
      <path id="Caminho_26" data-name="Caminho 26" d="M1256.651,511.262a1.63,1.63,0,0,1-.127-.608,1.558,1.558,0,0,1,1.6-1.52,1.587,1.587,0,0,1,1.544,1.14l4.079,12.184,4-12.133a1.644,1.644,0,0,1,1.571-1.241h.228a1.621,1.621,0,0,1,1.57,1.241l4,12.133,4.078-12.21a1.589,1.589,0,0,1,1.52-1.114,1.525,1.525,0,0,1,1.546,1.495,1.779,1.779,0,0,1-.152.633l-5.243,14.692a1.737,1.737,0,0,1-1.622,1.292h-.3a1.679,1.679,0,0,1-1.6-1.292l-3.952-11.576-3.951,11.576a1.706,1.706,0,0,1-1.621,1.292h-.3a1.73,1.73,0,0,1-1.622-1.292Z" transform="translate(-1195.748 -498.574)" fill="#fff"/>
      <path id="Caminho_27" data-name="Caminho 27" d="M1354.914,525.848v-14.59a1.547,1.547,0,0,1,1.571-1.571h10.309a1.406,1.406,0,0,1,1.393,1.393,1.389,1.389,0,0,1-1.393,1.393h-8.764v4.61h7.625a1.411,1.411,0,0,1,1.393,1.418,1.384,1.384,0,0,1-1.393,1.368h-7.625v4.762h8.891a1.406,1.406,0,0,1,1.393,1.393,1.389,1.389,0,0,1-1.393,1.393h-10.436a1.547,1.547,0,0,1-1.571-1.57" transform="translate(-1265.233 -499)" fill="#fff"/>
      <path id="Caminho_28" data-name="Caminho 28" d="M1409.244,524.784l6.586-14.692a1.977,1.977,0,0,1,1.875-1.266h.152a1.943,1.943,0,0,1,1.849,1.266l6.586,14.692a1.359,1.359,0,0,1,.177.658,1.46,1.46,0,0,1-1.469,1.494,1.606,1.606,0,0,1-1.52-1.089l-1.444-3.319h-8.613l-1.494,3.42a1.5,1.5,0,0,1-1.444.988,1.427,1.427,0,0,1-1.444-1.444,1.6,1.6,0,0,1,.2-.709m11.6-5.016-3.116-7.169-3.116,7.169Z" transform="translate(-1303.458 -498.392)" fill="#fff"/>
      <path id="Caminho_29" data-name="Caminho 29" d="M1473.937,512.575h-4.306a1.444,1.444,0,0,1,0-2.887h11.779a1.444,1.444,0,0,1,0,2.887h-4.332V526a1.571,1.571,0,0,1-3.141,0Z" transform="translate(-1345.228 -499.001)" fill="#fff"/>
      <path id="Caminho_30" data-name="Caminho 30" d="M1529.4,510.8a1.558,1.558,0,0,1,3.116,0V525.7a1.558,1.558,0,0,1-3.116,0Z" transform="translate(-1388.459 -498.696)" fill="#fff"/>
      <path id="Caminho_31" data-name="Caminho 31" d="M1556.128,511.258a1.546,1.546,0,0,1,1.57-1.571h10.335a1.419,1.419,0,1,1,0,2.837h-8.789v4.838h7.649a1.418,1.418,0,1,1,0,2.837h-7.649V526a1.558,1.558,0,0,1-3.116,0Z" transform="translate(-1407.334 -499)" fill="#fff"/>
      <path id="Caminho_32" data-name="Caminho 32" d="M1614.142,520.164l-6.1-8.385a1.927,1.927,0,0,1-.355-1.089,1.515,1.515,0,0,1,1.57-1.495,1.8,1.8,0,0,1,1.52.937l4.94,7.118,5.016-7.143a1.788,1.788,0,0,1,1.494-.937,1.478,1.478,0,0,1,1.52,1.52,1.888,1.888,0,0,1-.431,1.114l-6.054,8.283v5.547a1.558,1.558,0,0,1-3.116,0Z" transform="translate(-1443.743 -498.635)" fill="#fff"/>
    </g>
  </g>
</svg>
