<svg xmlns="http://www.w3.org/2000/svg" width="32.675" height="39.184" viewBox="0 0 32.675 39.184">
  <g id="Grupo_588" data-name="Grupo 588" transform="translate(-140 -40)">
    <path id="Caminho_34" data-name="Caminho 34" d="M1146.407,476.386a3.009,3.009,0,1,1-3.009-3.039,3.025,3.025,0,0,1,3.009,3.039" transform="translate(-973.732 -433.336)" fill="#fff"/>
    <path id="Caminho_35" data-name="Caminho 35" d="M1079.21,512.5h-26.478a3.058,3.058,0,0,1-3.079-3.023,3.106,3.106,0,0,1,3.079-3.079h20.376L1051,479.692a5.073,5.073,0,0,1-1.232-3.191v-.167a3.1,3.1,0,0,1,3.08-3.023h14.211a3.1,3.1,0,0,1,3.023,3.079,3.047,3.047,0,0,1-3.023,3.023h-8.109l22.055,26.7a4.732,4.732,0,0,1,1.288,3.19v.168a3.134,3.134,0,0,1-3.079,3.023" transform="translate(-909.653 -433.311)" fill="#fff"/>
  </g>
</svg>
