<svg data-name="Grupo 5" xmlns="http://www.w3.org/2000/svg" width="20.749" height="15.316"><g data-name="Grupo 4"><circle data-name="Elipse 2" cx="5.39" cy="5.39" r="5.39" transform="rotate(-22.5 13.703 -14.686)" fill="#f79e1b"/><circle data-name="Elipse 3" cx="5.39" cy="5.39" r="5.39" transform="rotate(-22.5 10.371 2.063)" fill="#eb001b"/><ellipse data-name="Elipse 4" cx="2.059" cy="4.236" rx="2.059" ry="4.236" transform="translate(8.315 2.807)" fill="#ff5f00"/></g><path data-name="Caminho 10" d="M4.792 15.243v-.9a.531.531 0 00-.493-.566.493.493 0 00-.068 0 .551.551 0 00-.5.253.524.524 0 00-.471-.253.47.47 0 00-.417.212v-.176h-.31v1.43h.313v-.784a.334.334 0 01.286-.376.329.329 0 01.063 0c.206 0 .31.134.31.376v.784h.313v-.79a.335.335 0 01.289-.376.349.349 0 01.06 0c.212 0 .313.134.313.376v.79zm4.632-1.425h-.51v-.432h-.313v.432h-.283v.283h.289v.656c0 .331.128.528.495.528a.727.727 0 00.388-.11l-.09-.266a.57.57 0 01-.274.081c-.149 0-.206-.1-.206-.239v-.65h.507zm2.645-.036a.42.42 0 00-.376.209v-.173h-.307v1.425h.31v-.8c0-.236.1-.367.3-.367a.5.5 0 01.194.036l.1-.3a.665.665 0 00-.221-.039zm-4 .149a1.063 1.063 0 00-.581-.149c-.361 0-.6.173-.6.456 0 .233.173.376.492.421l.149.021c.17.024.25.069.25.149 0 .11-.113.173-.325.173a.759.759 0 01-.474-.149l-.149.242a1.029 1.029 0 00.617.185c.412 0 .65-.194.65-.465s-.188-.382-.5-.426l-.149-.021c-.134-.018-.241-.045-.241-.14s.1-.167.271-.167a.919.919 0 01.447.122zm8.306-.149a.42.42 0 00-.376.209v-.173h-.307v1.425h.31v-.8c0-.236.1-.367.3-.367a.5.5 0 01.194.036l.1-.3a.665.665 0 00-.221-.039zm-4 .745a.72.72 0 00.693.746h.067a.747.747 0 00.513-.17l-.149-.25a.624.624 0 01-.373.128.458.458 0 010-.912.626.626 0 01.373.128l.149-.25a.747.747 0 00-.513-.17.72.72 0 00-.76.678v.067zm2.9 0v-.709h-.31v.173a.54.54 0 00-.447-.209.746.746 0 000 1.491.54.54 0 00.447-.209v.173h.31zm-1.154 0a.431.431 0 110 .034.054.054 0 00.01-.035zm-3.742-.745a.746.746 0 10.021 1.491.867.867 0 00.592-.194l-.149-.23a.68.68 0 01-.415.149.4.4 0 01-.426-.349h1.059v-.119a.678.678 0 00-.677-.746zm0 .277a.353.353 0 01.361.346h-.746a.367.367 0 01.379-.346zm7.769.471v-1.287h-.3v.746a.541.541 0 00-.447-.209.746.746 0 100 1.491.541.541 0 00.447-.209v.173h.3zm.518.505a.147.147 0 01.057.01.151.151 0 01.046.03.144.144 0 01.031.045.139.139 0 010 .11.148.148 0 01-.031.045.15.15 0 01-.046.03.137.137 0 01-.057.012.15.15 0 01-.134-.086.142.142 0 010-.11.155.155 0 01.031-.045.15.15 0 01.046-.03.153.153 0 01.061-.01zm0 .252a.11.11 0 00.043-.009.108.108 0 00.034-.024.11.11 0 000-.149.119.119 0 00-.034-.024.1.1 0 00-.043-.009.114.114 0 00-.043.009.111.111 0 00-.036.024.11.11 0 000 .149.111.111 0 00.036.024.108.108 0 00.048.009zm.009-.178a.06.06 0 01.039.012.036.036 0 01.013.031.036.036 0 01-.01.027.054.054 0 01-.031.013l.043.049h-.034l-.04-.049h-.013v.051h-.028v-.131zm-.033.025v.036h.033a.03.03 0 00.018 0 .014.014 0 000-.013.014.014 0 000-.013.03.03 0 00-.018 0zm-1.64-.605a.428.428 0 110 .034q.009-.02.01-.034zm-10.471 0v-.713h-.31v.173a.54.54 0 00-.447-.209.746.746 0 100 1.491.54.54 0 00.447-.209v.173h.31zm-1.154 0a.4.4 0 110 .037.362.362 0 010-.037z" fill="#1a1a1a"/></svg>