<svg xmlns="http://www.w3.org/2000/svg" width="105.142" height="24.634" viewBox="0 0 105.142 24.634">
  <g id="Grupo_103" data-name="Grupo 103" transform="translate(0 0)" opacity="0.297">
    <g id="Grupo_101" data-name="Grupo 101" transform="translate(33.324 5.573)">
      <path id="Caminho_66" data-name="Caminho 66" d="M258.637,53.938h2.152V59.38l5.268-5.442h2.52l-5.653,5.855,6.248,6.337h-2.8l-5.582-5.7v5.7h-2.152Z" transform="translate(-258.637 -53.542)" fill="#fff"/>
      <path id="Caminho_67" data-name="Caminho 67" d="M387.286,53.864a6.041,6.041,0,0,1,9.24-.62,6.553,6.553,0,0,1,1.8,4.632,6.482,6.482,0,0,1-1.8,4.615,5.995,5.995,0,0,1-8.7.017,6.465,6.465,0,0,1-1.82-4.633A6.627,6.627,0,0,1,387.286,53.864Zm4.883,8.438a4.12,4.12,0,0,0,3.938-4.426c0-2.583-1.733-4.426-3.937-4.426s-3.92,1.86-3.92,4.426C388.248,60.425,389.981,62.3,392.168,62.3Z" transform="translate(-366.251 -51.384)" fill="#fff"/>
      <path id="Caminho_68" data-name="Caminho 68" d="M541.36,53.938h2.87a6.411,6.411,0,0,1,3.867.844,3.181,3.181,0,0,1,1.452,2.6,3.511,3.511,0,0,1-2.712,3.392l4.008,5.356h-2.538l-3.763-5.063H543.5V66.13H541.36Zm3.133,5.562c1.925,0,2.888-.706,2.888-1.946,0-1.343-1.033-1.877-3.08-1.877h-.8V59.5Z" transform="translate(-497.507 -53.542)" fill="#fff"/>
      <path id="Caminho_69" data-name="Caminho 69" d="M674.6,53.938h7.21v1.877h-5.093v3h4.375v1.86h-4.375v3.565h5.18V66.13h-7.3Z" transform="translate(-610.079 -53.542)" fill="#fff"/>
    </g>
    <g id="Grupo_102" data-name="Grupo 102" transform="translate(0 0)">
      <path id="Caminho_70" data-name="Caminho 70" d="M47.942,35.743a12.212,12.212,0,0,0,0,18.339Z" transform="translate(-43.795 -32.596)" fill="#fff"/>
      <path id="Caminho_71" data-name="Caminho 71" d="M77,26.978,88.3,16.11A12.51,12.51,0,0,0,77,17.8Z" transform="translate(-71.852 -15.452)" fill="#fff"/>
      <path id="Caminho_72" data-name="Caminho 72" d="M79.545,82.975,77,85.421V94.79a12.514,12.514,0,0,0,13.8.52Z" transform="translate(-71.852 -72.501)" fill="#fff"/>
      <path id="Caminho_73" data-name="Caminho 73" d="M107.121,22.271l-9.063,8.72,11.383,12.466a12.246,12.246,0,0,0-2.32-21.186Z" transform="translate(-89.641 -21.213)" fill="#fff"/>
    </g>
  </g>
</svg>
