<svg id="Grupo_667" data-name="Grupo 667" xmlns="http://www.w3.org/2000/svg" width="46.457" height="26.867" viewBox="0 0 46.457 26.867">
  <g id="Grupo_156" data-name="Grupo 156">
    <g id="Grupo_155" data-name="Grupo 155">
      <path id="Caminho_88" data-name="Caminho 88" d="M398.611,130.7c-5.755,0-9.592-4.189-9.592-9.721,0-.09.01-.176.011-.266l-1.483,2.3c.873,5.532,5.315,9.159,11.064,9.159,4.412,0,8.506-2.344,9.944-6.751h-1.567A8.727,8.727,0,0,1,398.611,130.7Z" transform="translate(-362.098 -105.393)" fill="#ffe500"/>
      <path id="Caminho_89" data-name="Caminho 89" d="M299.3,59.605l2.048-3.172.03.059.443.85.368.707,3.887,7.465a.663.663,0,0,0,.894.232.634.634,0,0,0,.333-.843l-4.257-8.177a9.924,9.924,0,0,1,3.862-.682,8.943,8.943,0,0,1,8.252,4.908h1.565c-1.534-4.188-5.531-6.283-9.751-6.376a12.291,12.291,0,0,0-4.6.86l-2.013-3.868h5.286a.685.685,0,0,0,0-1.357h-6.427a.712.712,0,0,0-.626.7.82.82,0,0,0,.1.43l1.014,1.947.829,1.593-.012.013-2.26,3.5.014-.016-1.427,2.212c0-.008.008-.016.011-.024l-2.731,4.23-.856,1.325-.227.351s-3.452,5.322-3.5,5.357a9.489,9.489,0,0,1-7.839,3.782,9.379,9.379,0,0,1-9.656-9.813,9.689,9.689,0,1,1,19.377,0c0,.1-.011.184-.012.277l1.013-1.568.475-.735.381-.59-1.411-2.711-.226-.435-3.047-5.852h3.113a.686.686,0,0,0,0-1.358h-6.426a.686.686,0,0,0,0,1.358h1.767l1.109,2.129a11.883,11.883,0,0,0-6.456-1.8A10.876,10.876,0,0,0,270.425,65.8c0,6.751,4.8,11.282,11.288,11.282,3.648,0,6.955-1.287,8.708-3.727l1.549-2.4,2.115-3.275.853-1.325.793-1.225,2.923-4.528Z" transform="translate(-270.425 -50.212)" fill="#ffe500"/>
    </g>
  </g>
</svg>
