<svg xmlns="http://www.w3.org/2000/svg" width="57.898" height="46.998" viewBox="0 0 57.898 46.998">
  <g id="Grupo_709" data-name="Grupo 709" transform="translate(-279.599 -176.002)">
    <circle id="Elipse_41" data-name="Elipse 41" cx="14" cy="14" r="14" transform="translate(309 177)" fill="#8dfffd"/>
    <g id="mail_1_" data-name="mail (1)" transform="translate(279.599 179.744)">
      <path id="Caminho_112" data-name="Caminho 112" d="M393.672,107.094l-8.4,6.833L381.921,110a.82.82,0,1,0-1.248,1.065l3.873,4.536a.821.821,0,0,0,1.142.1l9.019-7.338a.82.82,0,1,0-1.036-1.273Zm0,0" transform="translate(-344.73 -100.256)"/>
      <path id="Caminho_113" data-name="Caminho 113" d="M43.013-3.742A14.878,14.878,0,0,0,28.156,10.272H5.508a5.515,5.515,0,0,0-5.461,4.8.818.818,0,0,0-.037.39c-.006.1-.01.209-.01.315V37.748a5.484,5.484,0,0,0,1.271,3.516.82.82,0,0,0,.273.3,5.494,5.494,0,0,0,3.964,1.689H38.325a5.491,5.491,0,0,0,3.96-1.686.886.886,0,0,0,.123-.1.82.82,0,0,0,.152-.206,5.481,5.481,0,0,0,1.273-3.518V26a14.885,14.885,0,0,0-.82-29.747ZM5.508,11.913H28.149a14.814,14.814,0,0,0,4.044,9.452,15.1,15.1,0,0,0,1.148,1.094l-9.219,7.82a3.389,3.389,0,0,1-4.4,0L1.715,15.029A3.874,3.874,0,0,1,5.508,11.913Zm0,29.7a3.854,3.854,0,0,1-2.321-.775l9.9-10.123a.821.821,0,1,0-1.173-1.148l-9.8,10.025a3.846,3.846,0,0,1-.47-1.846V17.116L18.666,31.532a5.024,5.024,0,0,0,6.516,0l9.492-8.05a14.7,14.7,0,0,0,7.519,2.526V37.748a3.838,3.838,0,0,1-.473,1.853L31.858,29.568a.82.82,0,0,0-1.17,1.15L40.64,40.844a3.849,3.849,0,0,1-2.315.772ZM43.013,24.387a13.1,13.1,0,0,1-7.837-2.562.952.952,0,0,0-.109-.083,13.436,13.436,0,0,1-1.682-1.5,13.244,13.244,0,1,1,9.628,4.149Zm0,0" fill="#fff"/>
    </g>
  </g>
</svg>
