<svg xmlns="http://www.w3.org/2000/svg" width="32.633" height="20.884" viewBox="0 0 32.633 20.884">
  <g id="Grupo_652" data-name="Grupo 652" transform="translate(0.6 0.6)">
    <ellipse id="Elipse_47" data-name="Elipse 47" cx="9.842" cy="9.842" rx="9.842" ry="9.842" fill="none" stroke="#000" stroke-linecap="round" stroke-linejoin="round" stroke-width="1.2"/>
    <path id="Caminho_115" data-name="Caminho 115" d="M523.14,223.457a9.846,9.846,0,0,1,.136,18.078" transform="translate(-503.593 -222.684)" fill="none" stroke="#000" stroke-linecap="round" stroke-linejoin="round" stroke-width="1.2"/>
    <path id="Caminho_116" data-name="Caminho 116" d="M538.788,223.457a9.847,9.847,0,0,1,.136,18.078" transform="translate(-513.366 -222.684)" fill="none" stroke="#000" stroke-linecap="round" stroke-linejoin="round" stroke-width="1.2"/>
    <path id="Caminho_117" data-name="Caminho 117" d="M198.47,153.144l-5.828-3.747a.416.416,0,0,0-.642.35v7.494a.416.416,0,0,0,.642.35l5.828-3.747a.416.416,0,0,0,0-.7Zm-5.637,3.334V150.51l4.642,2.984Z" transform="translate(-184.864 -143.557)" stroke="#000" stroke-width="0.5"/>
  </g>
</svg>
