<svg xmlns="http://www.w3.org/2000/svg" width="19.001" height="21.174" viewBox="0 0 19.001 21.174">
  <g id="Grupo_648" data-name="Grupo 648" transform="translate(-280.823 -355)">
    <g id="bell" transform="translate(248.642 356)">
      <g id="Grupo_67" data-name="Grupo 67" transform="translate(38.327)">
        <g id="Grupo_66" data-name="Grupo 66" transform="translate(0)">
          <path id="Caminho_56" data-name="Caminho 56" d="M190.832,0a2.676,2.676,0,0,0-2.673,2.673V3.724h1.371V2.673a1.3,1.3,0,0,1,2.6,0V3.724h1.371V2.673A2.676,2.676,0,0,0,190.832,0Z" transform="translate(-188.159)" fill="#fff"/>
        </g>
      </g>
      <g id="Grupo_69" data-name="Grupo 69" transform="translate(33.986 2.582)">
        <g id="Grupo_68" data-name="Grupo 68" transform="translate(0)">
          <path id="Caminho_57" data-name="Caminho 57" d="M85,65.522A7.057,7.057,0,0,0,77.989,72.6v3.747H79.36V72.6a5.644,5.644,0,1,1,11.287,0v3.747h1.371V72.6A7.057,7.057,0,0,0,85,65.522Z" transform="translate(-77.989 -65.522)" fill="#fff"/>
        </g>
      </g>
      <g id="Grupo_71" data-name="Grupo 71" transform="translate(37.71 16.93)">
        <g id="Grupo_70" data-name="Grupo 70" transform="translate(0)">
          <path id="Caminho_58" data-name="Caminho 58" d="M177.666,429.663a1.876,1.876,0,0,1-1.873,1.873h-.046a1.876,1.876,0,0,1-1.873-1.873H172.5a3.248,3.248,0,0,0,3.244,3.244h.046a3.248,3.248,0,0,0,3.244-3.244Z" transform="translate(-172.502 -429.663)" fill="#fff"/>
        </g>
      </g>
      <g id="Grupo_73" data-name="Grupo 73" transform="translate(32.181 12.772)">
        <g id="Grupo_72" data-name="Grupo 72" transform="translate(0)">
          <path id="Caminho_59" data-name="Caminho 59" d="M47.352,324.131h-12.7a2.468,2.468,0,1,0,0,4.935h12.7a2.468,2.468,0,1,0,0-4.935Zm0,3.564h-12.7a1.1,1.1,0,1,1,0-2.193h12.7a1.1,1.1,0,0,1,1.1,1.081A1.112,1.112,0,0,1,47.352,327.7Z" transform="translate(-32.181 -324.131)" fill="#fff"/>
        </g>
      </g>
    </g>
    <g id="Elipse_127" data-name="Elipse 127" transform="translate(289.823 355)" fill="#8dfffd" stroke="#fff" stroke-width="2">
      <circle cx="5" cy="5" r="5" stroke="none"/>
      <circle cx="5" cy="5" r="4" fill="none"/>
    </g>
  </g>
</svg>
