<svg xmlns="http://www.w3.org/2000/svg" width="22.918" height="20.501" viewBox="0 0 22.918 20.501">
  <g id="home" transform="translate(0.251 0.269)">
    <g id="Grupo_43" data-name="Grupo 43" transform="translate(0 0)">
      <g id="Grupo_42" data-name="Grupo 42">
        <path id="Caminho_43" data-name="Caminho 43" d="M22.177,35.69,11.551,27.91a.582.582,0,0,0-.688,0L.238,35.69a.582.582,0,0,0,.688.94L11.207,29.1l10.281,7.528a.582.582,0,0,0,.688-.94Z" transform="translate(0.001 -27.798)" fill="#fff" stroke="#fff" stroke-width="0.5"/>
      </g>
    </g>
    <g id="Grupo_45" data-name="Grupo 45" transform="translate(2.472 8.964)">
      <g id="Grupo_44" data-name="Grupo 44" transform="translate(0 0)">
        <path id="Caminho_44" data-name="Caminho 44" d="M73.342,232.543a.582.582,0,0,0-.582.582v9.27H68.1v-5.06a2.912,2.912,0,1,0-5.825,0v5.06H57.617v-9.27a.582.582,0,0,0-1.165,0v9.853a.582.582,0,0,0,.582.582h5.824a.582.582,0,0,0,.58-.537.436.436,0,0,0,0-.045v-5.643a1.747,1.747,0,0,1,3.495,0v5.643a.426.426,0,0,0,0,.045.582.582,0,0,0,.58.538h5.824a.582.582,0,0,0,.582-.582v-9.853A.582.582,0,0,0,73.342,232.543Z" transform="translate(-56.452 -232.543)" fill="#fff" stroke="#fff" stroke-width="0.5"/>
      </g>
    </g>
  </g>
</svg>
