<svg xmlns="http://www.w3.org/2000/svg" width="25.824" height="25.824" viewBox="0 0 25.824 25.824">
  <g id="Grupo_47" data-name="Grupo 47" transform="translate(0.25 0.25)">
    <g id="Grupo_46" data-name="Grupo 46">
      <path id="Caminho_45" data-name="Caminho 45" d="M12.662,0A12.662,12.662,0,1,0,25.324,12.662,12.676,12.676,0,0,0,12.662,0Zm0,24.269A11.607,11.607,0,1,1,24.269,12.662,11.62,11.62,0,0,1,12.662,24.269Z" stroke="#000" stroke-width="0.5"/>
      <path id="Caminho_46" data-name="Caminho 46" d="M199.694,153.865l-6.931-4.455a.5.5,0,0,0-.763.416v8.911a.495.495,0,0,0,.763.416l6.931-4.455a.495.495,0,0,0,0-.833Zm-6.7,3.965v-7.1l5.52,3.548Z" transform="translate(-182.211 -141.619)" stroke="#000" stroke-width="0.5"/>
    </g>
  </g>
</svg>
