<svg xmlns="http://www.w3.org/2000/svg" width="22.488" height="22.488"><g data-name="Grupo 286" fill="#c9c9c9"><path data-name="Caminho 118" d="M21.337 8.883l-1.578-.268a8.913 8.913 0 00-.634-1.531l.93-1.3a1.385 1.385 0 00-.15-1.79l-1.4-1.4a1.379 1.379 0 00-.982-.409 1.365 1.365 0 00-.8.258l-1.306.93a8.82 8.82 0 00-1.588-.653l-.263-1.56a1.388 1.388 0 00-1.375-1.161h-1.978a1.388 1.388 0 00-1.372 1.16l-.272 1.6a8.693 8.693 0 00-1.527.64L5.75 2.471a1.388 1.388 0 00-1.79.15l-1.4 1.4a1.391 1.391 0 00-.15 1.79l.94 1.32a8.706 8.706 0 00-.63 1.536l-1.56.263A1.388 1.388 0 000 10.299v1.978a1.388 1.388 0 001.16 1.372l1.6.272a8.693 8.693 0 00.64 1.53l-.925 1.287a1.385 1.385 0 00.15 1.79l1.4 1.4a1.379 1.379 0 00.982.409 1.365 1.365 0 00.8-.258l1.32-.94a8.887 8.887 0 001.484.611l.263 1.578a1.388 1.388 0 001.372 1.16h1.982a1.388 1.388 0 001.372-1.16l.268-1.578a8.913 8.913 0 001.531-.634l1.3.93a1.379 1.379 0 00.808.258 1.379 1.379 0 00.982-.409l1.4-1.4a1.391 1.391 0 00.15-1.79l-.93-1.306a8.849 8.849 0 00.634-1.531l1.578-.263a1.388 1.388 0 001.16-1.372v-1.978a1.371 1.371 0 00-1.144-1.372zm-.108 3.349a.122.122 0 01-.1.122l-1.973.329a.631.631 0 00-.507.465 7.52 7.52 0 01-.817 1.968.635.635 0 00.028.691l1.16 1.635a.128.128 0 01-.02.157l-1.4 1.4a.119.119 0 01-.089.038.115.115 0 01-.07-.023l-1.63-1.16a.635.635 0 00-.691-.028 7.52 7.52 0 01-1.968.817.624.624 0 00-.465.507l-.334 1.973a.122.122 0 01-.122.1h-1.976a.122.122 0 01-.122-.1l-.333-1.97a.631.631 0 00-.465-.507 7.809 7.809 0 01-1.926-.789.65.65 0 00-.319-.085.619.619 0 00-.366.117l-1.641 1.17a.14.14 0 01-.07.023.126.126 0 01-.089-.038l-1.4-1.4a.127.127 0 01-.014-.16l1.156-1.621a.643.643 0 00.028-.7 7.449 7.449 0 01-.827-1.964.643.643 0 00-.507-.465l-1.988-.335a.122.122 0 01-.1-.122v-1.978a.122.122 0 01.1-.122l1.959-.329a.635.635 0 00.512-.47 7.513 7.513 0 01.8-1.973.627.627 0 00-.033-.686L3.443 5.078a.128.128 0 01.014-.16l1.4-1.4a.119.119 0 01.089-.038.115.115 0 01.07.023L6.638 4.66a.643.643 0 00.7.028A7.449 7.449 0 019.3 3.862a.643.643 0 00.465-.507l.335-1.988a.122.122 0 01.122-.1H12.2a.122.122 0 01.122.1l.329 1.959a.635.635 0 00.47.512 7.625 7.625 0 012.015.827.635.635 0 00.691-.028l1.621-1.165a.14.14 0 01.07-.023.126.126 0 01.089.038l1.4 1.4a.127.127 0 01.014.16l-1.16 1.63a.635.635 0 00-.028.691 7.52 7.52 0 01.817 1.968.624.624 0 00.507.465l1.973.334a.122.122 0 01.1.122v1.978z"/><path data-name="Caminho 119" d="M11.247 6.388a4.853 4.853 0 104.853 4.853 4.856 4.856 0 00-4.853-4.853zm0 8.437a3.584 3.584 0 113.584-3.584 3.587 3.587 0 01-3.584 3.585z"/></g></svg>