<svg xmlns="http://www.w3.org/2000/svg" width="15.764" height="19.41"><g fill="#f4f4f4"><path data-name="Caminho 231" d="M10.564 7.029a.455.455 0 00-.455.455v8.591a.455.455 0 00.909 0V7.484a.455.455 0 00-.454-.455zm0 0"/><path data-name="Caminho 232" d="M5.2 7.029a.455.455 0 00-.455.455v8.591a.455.455 0 10.909 0V7.484a.455.455 0 00-.454-.455zm0 0"/><path data-name="Caminho 233" d="M1.291 5.778v11.2a2.508 2.508 0 00.667 1.73 2.238 2.238 0 001.624.7h8.6a2.238 2.238 0 001.624-.7 2.508 2.508 0 00.667-1.73v-11.2a1.736 1.736 0 00-.445-3.415h-2.325v-.568a1.785 1.785 0 00-1.8-1.794H5.864a1.785 1.785 0 00-1.8 1.8v.568H1.736a1.736 1.736 0 00-.445 3.415zm10.891 12.723h-8.6a1.44 1.44 0 01-1.379-1.524V5.818h11.361v11.159a1.44 1.44 0 01-1.382 1.524zM4.973 1.795a.876.876 0 01.891-.886h4.039a.876.876 0 01.891.886v.568H4.973zM1.736 3.273h12.291a.818.818 0 010 1.636H1.736a.818.818 0 010-1.636zm0 0"/><path data-name="Caminho 234" d="M7.882 7.029a.455.455 0 00-.455.455v8.591a.455.455 0 10.909 0V7.484a.455.455 0 00-.454-.455zm0 0"/></g></svg>